<svg height='100px' width='100px'  fill="#000000" xmlns="http://www.w3.org/2000/svg" data-name="Layer 1" viewBox="0 0 100 100" x="0px" y="0px"><title>Artboard 7</title><path d="M13.76,12.3V84.54l37.8-18.7A5.18,5.18,0,0,1,59,70.48a7.52,7.52,0,1,0,15,0V56.7H84.46V70.48A17.92,17.92,0,0,1,69.82,88.07l-61.24,10A5.18,5.18,0,0,1,3.4,92.89V7.11A5.18,5.18,0,0,1,8.58,1.93h25a15.58,15.58,0,0,0-2,7.69V12.3H13.76ZM96.6,41a7.69,7.69,0,0,1-7.69,7.69H67.73l-.05.07-9.91,9.91a1.56,1.56,0,0,1-2.66-1.1V48.69H47.28A7.69,7.69,0,0,1,39.59,41V9.62a7.69,7.69,0,0,1,7.69-7.69H88.91A7.69,7.69,0,0,1,96.6,9.62ZM70.28,34.74A1.28,1.28,0,0,0,69,33.46H65.72a1.28,1.28,0,0,0-1.28,1.28v2.13a1.28,1.28,0,0,0,1.28,1.28H69a1.28,1.28,0,0,0,1.28-1.28Zm6.5-14.54a7.12,7.12,0,0,0-2.37-5.63,9.52,9.52,0,0,0-6.51-2.09,9.9,9.9,0,0,0-6.21,1.82,6,6,0,0,0-2.28,4.58.82.82,0,0,0,.81.87l3.73.07a1.34,1.34,0,0,0,1.33-.94A2.39,2.39,0,0,1,66,17.71,2.78,2.78,0,0,1,67.9,17a2.84,2.84,0,0,1,2.23.87,3.35,3.35,0,0,1,.78,2.33,4.62,4.62,0,0,1-.67,2.49,5.64,5.64,0,0,1-1.83,1.81,12.85,12.85,0,0,0-3.11,2.8,5.46,5.46,0,0,0-.82,2.66.91.91,0,0,0,.91,1h4a.91.91,0,0,0,.91-.81,4.51,4.51,0,0,1,.36-1.48,4,4,0,0,1,1.5-1.57,9.2,9.2,0,0,0,3.29-2.87A6.76,6.76,0,0,0,76.79,20.19Z"></path></svg>